<svg width="127" height="72" viewBox="0 0 127 72" fill="none" xmlns="http://www.w3.org/2000/svg">
<path d="M73.313 71.9997L64.644 54.7325L62.9378 64.3617H54.5222L59.2608 37.5215H71.7713C74.6525 37.5215 76.8383 38.166 78.3295 39.4549C79.8206 40.7438 80.5662 42.4624 80.5662 44.6106C80.5662 45.2425 80.5159 45.8111 80.4142 46.3166C80.0859 48.1362 79.3023 49.7348 78.0642 51.1122C76.8261 52.4895 74.2714 53.2772 71.3006 53.2772V54.2675H73.6773L82.525 71.9997H73.313ZM65.6297 49.1219H68.9661C69.7747 49.1219 70.4128 48.9387 70.8802 48.5722C71.3476 48.2057 71.6573 47.6308 71.8093 46.8473C71.8344 46.7209 71.8473 46.5567 71.8473 46.3545C71.8473 45.7985 71.6702 45.3625 71.3161 45.0466C70.9626 44.7307 70.4443 44.5727 69.7619 44.5727H66.4255L65.6297 49.1219Z" fill="#FD6A2C"/>
<path d="M20.7693 7.74707L19.7424 14.071H11.5344L11.2893 15.0521H13.4679L9.83469 34.5874H2.48094L6.16128 14.071H0L1.02685 7.74707H20.7693Z" fill="#FD6A2C"/>
<path d="M28.9526 15.0521L28.4492 17.7557H39.4134L38.137 24.7569H27.1338L26.7016 27.7277H37.6309L36.4425 34.5878H18.7025L23.4413 7.74707H41.3347L39.9014 15.0521H28.9526Z" fill="#FD6A2C"/>
<path d="M43.1276 44.9359L42.6242 47.6394H53.5884L52.312 54.6407H41.3089L40.8766 57.6115H51.8059L50.6175 64.4716H32.8775L37.6163 37.6309H55.5097L54.0764 44.9359H43.1276Z" fill="#FD6A2C"/>
<path d="M114.032 44.9359L113.529 47.6394H124.493L123.216 54.6407H112.213L111.781 57.6115H122.71L121.522 64.4716H103.782L108.521 37.6309H126.414L124.981 44.9359H114.032Z" fill="#FD6A2C"/>
<path d="M112.298 7.92186C113.487 8.11992 115.269 8.31797 116.457 9.11021C117.646 9.90245 118.513 11.061 119.428 12.8733C120.423 14.843 120.605 16.3027 120.605 18.3999C120.605 19.2342 120.529 20.1311 120.377 21.0917C119.923 23.6443 118.943 25.9444 117.439 27.9909C115.936 30.0383 114.027 31.6497 111.714 32.8251C109.402 33.9996 106.843 34.5877 104.038 34.5877H98.4465H92.855L96.4537 14.2597H94.4731L95.9343 7.74692H105.96H107.545H108.733C108.733 7.74692 111.11 7.7238 112.298 7.92186ZM104.607 27.081C106.502 27.081 108.101 26.5629 109.402 25.5268C110.704 24.4906 111.519 23.0119 111.847 21.0917C111.924 20.5865 111.961 20.1182 111.961 19.6887C111.961 18.198 111.5 17.0604 110.578 16.2769C109.655 15.4933 108.373 15.1015 106.73 15.1015H104.72L102.597 27.081H104.607Z" fill="#FD6A2C"/>
<path d="M15.1194 37.5215L18.2213 58.3611H19.3752L26.5474 37.5215H34.7027L24.9024 64.3623H11.645L8.71454 44.2656H6.93203L5.94174 37.5215H7.36117H15.1194Z" fill="#FD6A2C"/>
<path d="M91.4484 64.6223C88.1629 64.6223 85.5411 63.965 83.5822 62.6504C81.6232 61.3368 80.6442 59.4156 80.6442 56.8879C80.6442 56.6353 80.6691 56.2564 80.7198 55.7513H89.6664C89.5908 56.5348 89.7107 57.1156 90.0269 57.4945C90.3431 57.8743 90.8667 58.0633 91.5996 58.0633C92.055 58.0633 92.4338 57.9499 92.7371 57.7222C93.0404 57.4945 93.1925 57.1663 93.1925 56.7367C93.1925 56.1301 92.8957 55.625 92.3011 55.2203C91.7074 54.8156 90.7533 54.3353 89.4387 53.7794C87.9988 53.1728 86.817 52.592 85.8942 52.0362C84.9723 51.4803 84.1694 50.7216 83.4872 49.761C82.805 48.8004 82.464 47.6002 82.464 46.1603C82.464 44.264 82.9378 42.6277 83.8855 41.2504C84.8331 39.8732 86.1532 38.8306 87.8467 38.1226C89.5401 37.4155 91.4733 37.0615 93.647 37.0615C95.5931 37.0615 97.3307 37.3648 98.8601 37.9714C100.389 38.578 101.59 39.4565 102.461 40.6061C103.333 41.7556 103.769 43.1144 103.769 44.6816C103.769 44.8835 103.744 45.2375 103.693 45.7426H94.6325C94.6832 45.4394 94.709 45.2375 94.709 45.1361C94.709 44.6558 94.5698 44.2834 94.2914 44.0179C94.0139 43.7524 93.6341 43.6196 93.1547 43.6196C92.7252 43.6196 92.3712 43.7459 92.0928 43.9994C91.8144 44.252 91.6761 44.5802 91.6761 44.9849C91.6761 45.5408 91.9665 46.0275 92.5482 46.4442C93.1289 46.8609 94.0517 47.3725 95.3156 47.98C96.7555 48.6622 97.9502 49.3065 98.8979 49.9131C99.8456 50.5197 100.661 51.3217 101.343 52.3201C102.025 53.3185 102.366 54.5381 102.366 55.9789C102.366 57.6217 101.931 59.0994 101.059 60.414C100.187 61.7276 98.9293 62.7583 97.2865 63.5031C95.6438 64.2489 93.6977 64.6223 91.4484 64.6223Z" fill="#FD6A2C"/>
<path d="M59.021 38.8192L55.456 30.5008L52.4851 22.9104H50.2451L48.198 34.5867H39.782L46.1594 0H54.5625L50.9275 19.0436C50.9275 19.0436 55.2579 17.8251 57.2385 14.8543C59.2191 11.8834 60.6324 7.74649 60.6324 7.74649H69.7516C69.7516 7.74649 67.9407 12.3307 66.1511 14.8543C63.1802 19.0436 57.8596 19.3106 57.8596 19.3106L57.6346 20.3999H60.4074L69.1219 40.6017L59.021 38.8192Z" fill="#FD6A2C"/>
<path d="M66.1511 26.0447L75.4198 7.74609H85.9166L90.9585 34.5863H82.0877L81.4812 30.5299H72.5344L70.487 34.5863H69.8103L66.1511 26.0447ZM80.9676 24.199L79.9642 13.6661H79.2229L74.5305 24.199H80.9676Z" fill="#FD6A2C"/>
</svg>
